<svg width="253" height="232" viewBox="0 0 253 232" fill="none" xmlns="http://www.w3.org/2000/svg">
<rect width="253" height="232" rx="38" fill="#A89E00"/>
<path d="M39.288 172C38.824 172 38.464 171.872 38.208 171.616C37.952 171.36 37.824 171.008 37.824 170.56V156.496C37.824 156.032 37.96 155.664 38.232 155.392C38.52 155.104 38.896 154.96 39.36 154.96C39.84 154.96 40.216 155.104 40.488 155.392C40.776 155.664 40.92 156.032 40.92 156.496V169.456H47.664C48.624 169.456 49.104 169.88 49.104 170.728C49.104 171.576 48.624 172 47.664 172H39.288ZM59.9021 160.024C60.3661 160.024 60.7341 160.152 61.0061 160.408C61.2781 160.664 61.4141 161.008 61.4141 161.44V170.752C61.4141 171.168 61.2701 171.504 60.9821 171.76C60.7101 172.016 60.3501 172.144 59.9021 172.144C59.4701 172.144 59.1261 172.024 58.8701 171.784C58.6141 171.544 58.4861 171.216 58.4861 170.8V170.2C58.1181 170.84 57.6221 171.336 56.9981 171.688C56.3741 172.024 55.6701 172.192 54.8861 172.192C52.0061 172.192 50.5661 170.576 50.5661 167.344V161.44C50.5661 161.008 50.7021 160.664 50.9741 160.408C51.2461 160.152 51.6061 160.024 52.0541 160.024C52.5181 160.024 52.8861 160.152 53.1581 160.408C53.4301 160.664 53.5661 161.008 53.5661 161.44V167.368C53.5661 168.2 53.7341 168.816 54.0701 169.216C54.4061 169.616 54.9341 169.816 55.6541 169.816C56.4861 169.816 57.1501 169.544 57.6461 169C58.1581 168.44 58.4141 167.704 58.4141 166.792V161.44C58.4141 161.008 58.5501 160.664 58.8221 160.408C59.0941 160.152 59.4541 160.024 59.9021 160.024ZM66.0246 172.144C65.5926 172.144 65.2326 172.024 64.9446 171.784C64.6726 171.528 64.5366 171.168 64.5366 170.704V161.44C64.5366 160.976 64.6726 160.624 64.9446 160.384C65.2326 160.144 65.5926 160.024 66.0246 160.024C66.4566 160.024 66.8166 160.144 67.1046 160.384C67.3926 160.624 67.5366 160.976 67.5366 161.44V170.704C67.5366 171.168 67.3926 171.528 67.1046 171.784C66.8166 172.024 66.4566 172.144 66.0246 172.144ZM66.0246 157.888C65.4806 157.888 65.0486 157.744 64.7286 157.456C64.4086 157.152 64.2486 156.76 64.2486 156.28C64.2486 155.8 64.4086 155.416 64.7286 155.128C65.0486 154.84 65.4806 154.696 66.0246 154.696C66.5526 154.696 66.9766 154.84 67.2966 155.128C67.6326 155.416 67.8006 155.8 67.8006 156.28C67.8006 156.76 67.6406 157.152 67.3206 157.456C67.0006 157.744 66.5686 157.888 66.0246 157.888ZM79.3663 169.744C80.2623 169.744 80.7103 170.12 80.7103 170.872C80.7103 171.224 80.5983 171.504 80.3743 171.712C80.1503 171.904 79.8143 172 79.3663 172H71.3503C70.9503 172 70.6223 171.872 70.3663 171.616C70.1103 171.36 69.9823 171.056 69.9823 170.704C69.9823 170.336 70.1263 169.984 70.4143 169.648L76.5823 162.52H71.2303C70.7823 162.52 70.4463 162.424 70.2223 162.232C69.9983 162.04 69.8863 161.76 69.8863 161.392C69.8863 161.024 69.9983 160.744 70.2223 160.552C70.4463 160.36 70.7823 160.264 71.2303 160.264H78.9823C79.3983 160.264 79.7263 160.392 79.9663 160.648C80.2223 160.888 80.3503 161.192 80.3503 161.56C80.3503 161.944 80.2143 162.296 79.9423 162.616L73.7503 169.744H79.3663ZM97.2043 172.216C95.5723 172.216 94.1403 171.864 92.9083 171.16C91.6923 170.456 90.7563 169.448 90.1003 168.136C89.4443 166.824 89.1163 165.288 89.1163 163.528C89.1163 161.768 89.4443 160.24 90.1003 158.944C90.7563 157.632 91.6923 156.624 92.9083 155.92C94.1403 155.216 95.5723 154.864 97.2043 154.864C98.2603 154.864 99.2523 155.024 100.18 155.344C101.108 155.648 101.932 156.096 102.652 156.688C102.86 156.848 103.004 157.016 103.084 157.192C103.164 157.368 103.204 157.584 103.204 157.84C103.204 158.192 103.108 158.488 102.916 158.728C102.724 158.968 102.492 159.088 102.22 159.088C101.9 159.088 101.572 158.976 101.236 158.752C100.548 158.24 99.9083 157.888 99.3163 157.696C98.7243 157.488 98.0683 157.384 97.3483 157.384C95.6843 157.384 94.4203 157.904 93.5563 158.944C92.7083 159.984 92.2843 161.512 92.2843 163.528C92.2843 165.56 92.7083 167.096 93.5563 168.136C94.4203 169.176 95.6843 169.696 97.3483 169.696C98.0363 169.696 98.6683 169.592 99.2443 169.384C99.8363 169.176 100.5 168.824 101.236 168.328C101.396 168.232 101.556 168.152 101.716 168.088C101.876 168.024 102.044 167.992 102.22 167.992C102.492 167.992 102.724 168.112 102.916 168.352C103.108 168.592 103.204 168.888 103.204 169.24C103.204 169.48 103.164 169.696 103.084 169.888C103.004 170.064 102.86 170.232 102.652 170.392C101.932 170.984 101.108 171.44 100.18 171.76C99.2523 172.064 98.2603 172.216 97.2043 172.216ZM107.134 172.144C106.702 172.144 106.342 172.024 106.054 171.784C105.782 171.528 105.646 171.168 105.646 170.704V161.44C105.646 160.976 105.782 160.624 106.054 160.384C106.342 160.144 106.702 160.024 107.134 160.024C107.566 160.024 107.926 160.144 108.214 160.384C108.502 160.624 108.646 160.976 108.646 161.44V170.704C108.646 171.168 108.502 171.528 108.214 171.784C107.926 172.024 107.566 172.144 107.134 172.144ZM107.134 157.888C106.59 157.888 106.158 157.744 105.838 157.456C105.518 157.152 105.358 156.76 105.358 156.28C105.358 155.8 105.518 155.416 105.838 155.128C106.158 154.84 106.59 154.696 107.134 154.696C107.662 154.696 108.086 154.84 108.406 155.128C108.742 155.416 108.91 155.8 108.91 156.28C108.91 156.76 108.75 157.152 108.43 157.456C108.11 157.744 107.678 157.888 107.134 157.888ZM118.484 159.976C119.492 159.976 120.388 160.232 121.172 160.744C121.972 161.256 122.588 161.984 123.02 162.928C123.468 163.856 123.692 164.928 123.692 166.144C123.692 167.36 123.468 168.424 123.02 169.336C122.588 170.248 121.98 170.952 121.196 171.448C120.412 171.944 119.508 172.192 118.484 172.192C117.652 172.192 116.908 172.016 116.252 171.664C115.596 171.312 115.092 170.824 114.74 170.2V175.096C114.74 175.512 114.604 175.84 114.332 176.08C114.06 176.32 113.7 176.44 113.252 176.44C112.804 176.44 112.436 176.312 112.148 176.056C111.876 175.8 111.74 175.464 111.74 175.048V161.44C111.74 161.008 111.868 160.664 112.124 160.408C112.396 160.152 112.756 160.024 113.204 160.024C113.652 160.024 114.012 160.152 114.284 160.408C114.556 160.664 114.692 161.008 114.692 161.44V162.04C115.044 161.384 115.548 160.88 116.204 160.528C116.876 160.16 117.636 159.976 118.484 159.976ZM117.692 169.864C118.636 169.864 119.372 169.544 119.9 168.904C120.428 168.248 120.692 167.328 120.692 166.144C120.692 164.928 120.428 163.984 119.9 163.312C119.372 162.64 118.636 162.304 117.692 162.304C116.732 162.304 115.988 162.632 115.46 163.288C114.948 163.944 114.692 164.88 114.692 166.096C114.692 167.296 114.948 168.224 115.46 168.88C115.988 169.536 116.732 169.864 117.692 169.864ZM132.706 160.024C133.122 159.992 133.45 160.08 133.69 160.288C133.93 160.496 134.05 160.808 134.05 161.224C134.05 161.656 133.946 161.976 133.738 162.184C133.53 162.392 133.154 162.528 132.61 162.592L131.89 162.664C130.946 162.76 130.25 163.08 129.802 163.624C129.37 164.168 129.154 164.848 129.154 165.664V170.704C129.154 171.168 129.01 171.528 128.722 171.784C128.434 172.024 128.074 172.144 127.642 172.144C127.21 172.144 126.85 172.024 126.562 171.784C126.29 171.528 126.154 171.168 126.154 170.704V161.416C126.154 160.968 126.29 160.624 126.562 160.384C126.85 160.144 127.202 160.024 127.618 160.024C128.034 160.024 128.37 160.144 128.626 160.384C128.882 160.608 129.01 160.936 129.01 161.368V162.328C129.314 161.624 129.762 161.08 130.354 160.696C130.962 160.312 131.634 160.096 132.37 160.048L132.706 160.024ZM136.829 172.144C136.397 172.144 136.037 172.024 135.749 171.784C135.477 171.528 135.341 171.168 135.341 170.704V161.44C135.341 160.976 135.477 160.624 135.749 160.384C136.037 160.144 136.397 160.024 136.829 160.024C137.261 160.024 137.621 160.144 137.909 160.384C138.197 160.624 138.341 160.976 138.341 161.44V170.704C138.341 171.168 138.197 171.528 137.909 171.784C137.621 172.024 137.261 172.144 136.829 172.144ZM136.829 157.888C136.285 157.888 135.853 157.744 135.533 157.456C135.213 157.152 135.053 156.76 135.053 156.28C135.053 155.8 135.213 155.416 135.533 155.128C135.853 154.84 136.285 154.696 136.829 154.696C137.357 154.696 137.781 154.84 138.101 155.128C138.437 155.416 138.605 155.8 138.605 156.28C138.605 156.76 138.445 157.152 138.125 157.456C137.805 157.744 137.373 157.888 136.829 157.888ZM146.523 159.976C148.155 159.976 149.363 160.384 150.147 161.2C150.947 162 151.347 163.224 151.347 164.872V170.728C151.347 171.16 151.219 171.504 150.963 171.76C150.707 172 150.355 172.12 149.907 172.12C149.491 172.12 149.147 171.992 148.875 171.736C148.619 171.48 148.491 171.144 148.491 170.728V170.2C148.219 170.824 147.787 171.312 147.195 171.664C146.619 172.016 145.947 172.192 145.179 172.192C144.395 172.192 143.683 172.032 143.043 171.712C142.403 171.392 141.899 170.952 141.531 170.392C141.163 169.832 140.979 169.208 140.979 168.52C140.979 167.656 141.195 166.976 141.627 166.48C142.075 165.984 142.795 165.624 143.787 165.4C144.779 165.176 146.147 165.064 147.891 165.064H148.491V164.512C148.491 163.728 148.323 163.16 147.987 162.808C147.651 162.44 147.107 162.256 146.355 162.256C145.891 162.256 145.419 162.328 144.939 162.472C144.459 162.6 143.891 162.792 143.235 163.048C142.819 163.256 142.515 163.36 142.323 163.36C142.035 163.36 141.795 163.256 141.603 163.048C141.427 162.84 141.339 162.568 141.339 162.232C141.339 161.96 141.403 161.728 141.531 161.536C141.675 161.328 141.907 161.136 142.227 160.96C142.787 160.656 143.451 160.416 144.219 160.24C145.003 160.064 145.771 159.976 146.523 159.976ZM145.779 170.032C146.579 170.032 147.227 169.768 147.723 169.24C148.235 168.696 148.491 168 148.491 167.152V166.648H148.059C146.987 166.648 146.155 166.696 145.563 166.792C144.971 166.888 144.547 167.056 144.291 167.296C144.035 167.536 143.907 167.864 143.907 168.28C143.907 168.792 144.083 169.216 144.435 169.552C144.803 169.872 145.251 170.032 145.779 170.032ZM161.212 159.976C162.62 159.976 163.668 160.376 164.356 161.176C165.044 161.976 165.388 163.184 165.388 164.8V170.704C165.388 171.152 165.252 171.504 164.98 171.76C164.724 172.016 164.364 172.144 163.9 172.144C163.436 172.144 163.068 172.016 162.796 171.76C162.524 171.504 162.388 171.152 162.388 170.704V164.968C162.388 164.056 162.212 163.392 161.86 162.976C161.524 162.56 160.988 162.352 160.252 162.352C159.388 162.352 158.692 162.624 158.164 163.168C157.652 163.712 157.396 164.44 157.396 165.352V170.704C157.396 171.152 157.26 171.504 156.988 171.76C156.716 172.016 156.348 172.144 155.884 172.144C155.42 172.144 155.052 172.016 154.78 171.76C154.524 171.504 154.396 171.152 154.396 170.704V161.416C154.396 161 154.532 160.664 154.804 160.408C155.076 160.152 155.444 160.024 155.908 160.024C156.324 160.024 156.66 160.152 156.916 160.408C157.188 160.648 157.324 160.968 157.324 161.368V162.016C157.724 161.36 158.26 160.856 158.932 160.504C159.604 160.152 160.364 159.976 161.212 159.976ZM173.787 172.192C172.587 172.192 171.531 171.944 170.619 171.448C169.723 170.952 169.027 170.24 168.531 169.312C168.035 168.384 167.787 167.304 167.787 166.072C167.787 164.84 168.035 163.768 168.531 162.856C169.027 161.928 169.723 161.216 170.619 160.72C171.531 160.224 172.587 159.976 173.787 159.976C174.987 159.976 176.035 160.224 176.931 160.72C177.843 161.216 178.539 161.928 179.019 162.856C179.515 163.768 179.763 164.84 179.763 166.072C179.763 167.304 179.515 168.384 179.019 169.312C178.539 170.24 177.843 170.952 176.931 171.448C176.035 171.944 174.987 172.192 173.787 172.192ZM173.763 169.864C174.739 169.864 175.483 169.544 175.995 168.904C176.507 168.264 176.763 167.32 176.763 166.072C176.763 164.84 176.507 163.904 175.995 163.264C175.483 162.608 174.747 162.28 173.787 162.28C172.827 162.28 172.083 162.608 171.555 163.264C171.043 163.904 170.787 164.84 170.787 166.072C170.787 167.32 171.043 168.264 171.555 168.904C172.067 169.544 172.803 169.864 173.763 169.864Z" fill="#1F005D"/>
<path d="M37.792 189.07C37.6147 189.07 37.4747 189.019 37.372 188.916C37.2693 188.804 37.218 188.659 37.218 188.482V179.69C37.218 179.522 37.2693 179.387 37.372 179.284C37.484 179.181 37.6287 179.13 37.806 179.13H42.902C43.07 179.13 43.2007 179.172 43.294 179.256C43.3873 179.34 43.434 179.461 43.434 179.62C43.434 179.769 43.3873 179.886 43.294 179.97C43.2007 180.054 43.07 180.096 42.902 180.096H38.352V183.498H42.622C42.79 183.498 42.9207 183.54 43.014 183.624C43.1073 183.708 43.154 183.829 43.154 183.988C43.154 184.137 43.1073 184.254 43.014 184.338C42.9207 184.422 42.79 184.464 42.622 184.464H38.352V188.482C38.352 188.659 38.3007 188.804 38.198 188.916C38.1047 189.019 37.9693 189.07 37.792 189.07ZM48.0803 182.042C48.4723 182.014 48.6683 182.173 48.6683 182.518C48.6683 182.667 48.6263 182.789 48.5423 182.882C48.4583 182.966 48.3136 183.017 48.1083 183.036L47.6883 183.078C47.0629 183.134 46.5963 183.358 46.2883 183.75C45.9896 184.133 45.8403 184.585 45.8403 185.108V188.51C45.8403 188.697 45.7889 188.837 45.6863 188.93C45.5836 189.023 45.4483 189.07 45.2803 189.07C45.1123 189.07 44.9723 189.023 44.8603 188.93C44.7576 188.827 44.7063 188.687 44.7063 188.51V182.602C44.7063 182.425 44.7623 182.289 44.8743 182.196C44.9863 182.093 45.1216 182.042 45.2803 182.042C45.4296 182.042 45.5556 182.093 45.6583 182.196C45.7609 182.289 45.8123 182.42 45.8123 182.588V183.372C46.0083 182.961 46.2836 182.649 46.6383 182.434C47.0023 182.219 47.4176 182.093 47.8843 182.056L48.0803 182.042ZM52.3331 189.098C51.6891 189.098 51.1197 188.953 50.6251 188.664C50.1397 188.375 49.7617 187.964 49.4911 187.432C49.2297 186.891 49.0991 186.265 49.0991 185.556C49.0991 184.847 49.2297 184.226 49.4911 183.694C49.7617 183.153 50.1397 182.737 50.6251 182.448C51.1197 182.159 51.6891 182.014 52.3331 182.014C52.9771 182.014 53.5464 182.159 54.0411 182.448C54.5357 182.737 54.9137 183.153 55.1751 183.694C55.4457 184.226 55.5811 184.847 55.5811 185.556C55.5811 186.265 55.4457 186.891 55.1751 187.432C54.9137 187.964 54.5357 188.375 54.0411 188.664C53.5464 188.953 52.9771 189.098 52.3331 189.098ZM52.3331 188.16C53.0051 188.16 53.5184 187.941 53.8731 187.502C54.2371 187.054 54.4191 186.405 54.4191 185.556C54.4191 184.725 54.2371 184.086 53.8731 183.638C53.5091 183.181 52.9957 182.952 52.3331 182.952C51.6704 182.952 51.1571 183.181 50.7931 183.638C50.4291 184.086 50.2471 184.725 50.2471 185.556C50.2471 186.396 50.4244 187.04 50.7791 187.488C51.1431 187.936 51.6611 188.16 52.3331 188.16ZM60.7007 182.014C62.334 182.014 63.1507 182.915 63.1507 184.716V188.51C63.1507 188.687 63.0994 188.827 62.9967 188.93C62.9034 189.023 62.768 189.07 62.5907 189.07C62.4134 189.07 62.2734 189.023 62.1707 188.93C62.068 188.827 62.0167 188.687 62.0167 188.51V184.786C62.0167 184.151 61.8907 183.689 61.6387 183.4C61.396 183.111 61.004 182.966 60.4627 182.966C59.8374 182.966 59.338 183.157 58.9647 183.54C58.5914 183.923 58.4047 184.441 58.4047 185.094V188.51C58.4047 188.687 58.3534 188.827 58.2507 188.93C58.1574 189.023 58.022 189.07 57.8447 189.07C57.6674 189.07 57.5274 189.023 57.4247 188.93C57.322 188.827 57.2707 188.687 57.2707 188.51V182.602C57.2707 182.434 57.322 182.299 57.4247 182.196C57.5274 182.093 57.6674 182.042 57.8447 182.042C58.0127 182.042 58.1434 182.093 58.2367 182.196C58.3394 182.299 58.3907 182.429 58.3907 182.588V183.302C58.6147 182.882 58.9274 182.565 59.3287 182.35C59.73 182.126 60.1874 182.014 60.7007 182.014ZM68.3777 188.174C68.7044 188.202 68.8677 188.351 68.8677 188.622C68.8677 188.781 68.8071 188.902 68.6857 188.986C68.5737 189.061 68.4011 189.089 68.1677 189.07L67.7897 189.042C67.0431 188.986 66.4924 188.762 66.1377 188.37C65.7831 187.978 65.6057 187.385 65.6057 186.592V183.078H64.6677C64.5091 183.078 64.3831 183.041 64.2897 182.966C64.2057 182.882 64.1637 182.775 64.1637 182.644C64.1637 182.504 64.2057 182.392 64.2897 182.308C64.3831 182.224 64.5091 182.182 64.6677 182.182H65.6057V180.6C65.6057 180.423 65.6571 180.287 65.7597 180.194C65.8624 180.091 66.0024 180.04 66.1797 180.04C66.3477 180.04 66.4831 180.091 66.5857 180.194C66.6884 180.287 66.7397 180.423 66.7397 180.6V182.182H68.2937C68.4431 182.182 68.5597 182.224 68.6437 182.308C68.7371 182.392 68.7837 182.504 68.7837 182.644C68.7837 182.775 68.7371 182.882 68.6437 182.966C68.5597 183.041 68.4431 183.078 68.2937 183.078H66.7397V186.648C66.7397 187.161 66.8424 187.535 67.0477 187.768C67.2624 187.992 67.5797 188.118 67.9997 188.146L68.3777 188.174ZM70.1721 185.738C70.0041 185.738 69.8735 185.696 69.7801 185.612C69.6961 185.528 69.6541 185.416 69.6541 185.276C69.6541 185.136 69.6961 185.024 69.7801 184.94C69.8735 184.847 70.0041 184.8 70.1721 184.8H73.2521C73.4295 184.8 73.5601 184.847 73.6441 184.94C73.7375 185.024 73.7841 185.136 73.7841 185.276C73.7841 185.416 73.7375 185.528 73.6441 185.612C73.5601 185.696 73.4295 185.738 73.2521 185.738H70.1721ZM76.4974 189C76.3201 189 76.1754 188.949 76.0634 188.846C75.9607 188.743 75.9094 188.608 75.9094 188.44V179.69C75.9094 179.522 75.9607 179.387 76.0634 179.284C76.1754 179.181 76.3201 179.13 76.4974 179.13H81.7334C81.9014 179.13 82.0321 179.172 82.1254 179.256C82.2187 179.34 82.2654 179.457 82.2654 179.606C82.2654 179.755 82.2187 179.872 82.1254 179.956C82.0321 180.04 81.9014 180.082 81.7334 180.082H77.0434V183.512H81.4534C81.6214 183.512 81.7521 183.554 81.8454 183.638C81.9387 183.722 81.9854 183.839 81.9854 183.988C81.9854 184.137 81.9387 184.254 81.8454 184.338C81.7521 184.422 81.6214 184.464 81.4534 184.464H77.0434V188.048H81.7334C81.9014 188.048 82.0321 188.09 82.1254 188.174C82.2187 188.249 82.2654 188.365 82.2654 188.524C82.2654 188.673 82.2187 188.79 82.1254 188.874C82.0321 188.958 81.9014 189 81.7334 189H76.4974ZM87.3198 182.014C88.9532 182.014 89.7698 182.915 89.7698 184.716V188.51C89.7698 188.687 89.7185 188.827 89.6158 188.93C89.5225 189.023 89.3872 189.07 89.2098 189.07C89.0325 189.07 88.8925 189.023 88.7898 188.93C88.6872 188.827 88.6358 188.687 88.6358 188.51V184.786C88.6358 184.151 88.5098 183.689 88.2578 183.4C88.0152 183.111 87.6232 182.966 87.0818 182.966C86.4565 182.966 85.9572 183.157 85.5838 183.54C85.2105 183.923 85.0238 184.441 85.0238 185.094V188.51C85.0238 188.687 84.9725 188.827 84.8698 188.93C84.7765 189.023 84.6412 189.07 84.4638 189.07C84.2865 189.07 84.1465 189.023 84.0438 188.93C83.9412 188.827 83.8898 188.687 83.8898 188.51V182.602C83.8898 182.434 83.9412 182.299 84.0438 182.196C84.1465 182.093 84.2865 182.042 84.4638 182.042C84.6318 182.042 84.7625 182.093 84.8558 182.196C84.9585 182.299 85.0098 182.429 85.0098 182.588V183.302C85.2338 182.882 85.5465 182.565 85.9478 182.35C86.3492 182.126 86.8065 182.014 87.3198 182.014ZM97.3209 179.06C97.4982 179.06 97.6382 179.111 97.7409 179.214C97.8435 179.317 97.8949 179.447 97.8949 179.606V188.51C97.8949 188.678 97.8435 188.813 97.7409 188.916C97.6382 189.019 97.4982 189.07 97.3209 189.07C97.1435 189.07 97.0035 189.019 96.9009 188.916C96.8075 188.813 96.7609 188.678 96.7609 188.51V187.754C96.5555 188.183 96.2522 188.515 95.8509 188.748C95.4589 188.981 94.9969 189.098 94.4649 189.098C93.8675 189.098 93.3402 188.949 92.8829 188.65C92.4255 188.351 92.0709 187.936 91.8189 187.404C91.5669 186.863 91.4409 186.237 91.4409 185.528C91.4409 184.828 91.5669 184.212 91.8189 183.68C92.0709 183.148 92.4255 182.737 92.8829 182.448C93.3402 182.159 93.8675 182.014 94.4649 182.014C94.9969 182.014 95.4589 182.131 95.8509 182.364C96.2522 182.597 96.5555 182.929 96.7609 183.358V179.606C96.7609 179.438 96.8075 179.307 96.9009 179.214C97.0035 179.111 97.1435 179.06 97.3209 179.06ZM94.6889 188.16C95.3515 188.16 95.8602 187.936 96.2149 187.488C96.5789 187.031 96.7609 186.387 96.7609 185.556C96.7609 184.725 96.5789 184.086 96.2149 183.638C95.8602 183.19 95.3515 182.966 94.6889 182.966C94.0262 182.966 93.5082 183.19 93.1349 183.638C92.7709 184.086 92.5889 184.716 92.5889 185.528C92.5889 186.359 92.7709 187.007 93.1349 187.474C93.5082 187.931 94.0262 188.16 94.6889 188.16ZM104.361 189C104.183 189 104.039 188.949 103.927 188.846C103.824 188.743 103.773 188.608 103.773 188.44V179.69C103.773 179.522 103.824 179.387 103.927 179.284C104.039 179.181 104.183 179.13 104.361 179.13H107.091C108.668 179.13 109.886 179.559 110.745 180.418C111.613 181.267 112.047 182.481 112.047 184.058C112.047 185.635 111.613 186.853 110.745 187.712C109.877 188.571 108.659 189 107.091 189H104.361ZM107.021 188.02C109.578 188.02 110.857 186.699 110.857 184.058C110.857 181.426 109.578 180.11 107.021 180.11H104.921V188.02H107.021ZM119.232 187.418C119.335 187.418 119.424 187.46 119.498 187.544C119.573 187.628 119.61 187.735 119.61 187.866C119.61 188.099 119.447 188.314 119.12 188.51C118.784 188.706 118.43 188.855 118.056 188.958C117.683 189.051 117.319 189.098 116.964 189.098C115.91 189.098 115.074 188.785 114.458 188.16C113.852 187.535 113.548 186.671 113.548 185.57C113.548 184.87 113.684 184.254 113.954 183.722C114.225 183.181 114.603 182.761 115.088 182.462C115.583 182.163 116.143 182.014 116.768 182.014C117.655 182.014 118.36 182.303 118.882 182.882C119.405 183.461 119.666 184.245 119.666 185.234C119.666 185.421 119.629 185.556 119.554 185.64C119.48 185.724 119.358 185.766 119.19 185.766H114.682C114.766 187.371 115.527 188.174 116.964 188.174C117.328 188.174 117.641 188.127 117.902 188.034C118.164 187.931 118.444 187.796 118.742 187.628C118.985 187.488 119.148 187.418 119.232 187.418ZM116.782 182.896C116.185 182.896 115.704 183.083 115.34 183.456C114.986 183.829 114.776 184.357 114.71 185.038H118.672C118.654 184.347 118.481 183.82 118.154 183.456C117.828 183.083 117.37 182.896 116.782 182.896ZM126.169 182.392C126.272 182.168 126.435 182.056 126.659 182.056C126.799 182.056 126.925 182.103 127.037 182.196C127.149 182.289 127.205 182.406 127.205 182.546C127.205 182.63 127.186 182.705 127.149 182.77L124.419 188.65C124.363 188.771 124.279 188.869 124.167 188.944C124.055 189.009 123.934 189.042 123.803 189.042C123.682 189.042 123.565 189.009 123.453 188.944C123.341 188.869 123.252 188.771 123.187 188.65L120.471 182.77C120.434 182.705 120.415 182.635 120.415 182.56C120.415 182.42 120.476 182.299 120.597 182.196C120.728 182.093 120.868 182.042 121.017 182.042C121.11 182.042 121.199 182.07 121.283 182.126C121.376 182.182 121.446 182.261 121.493 182.364L123.831 187.614L126.169 182.392ZM133.642 187.418C133.745 187.418 133.834 187.46 133.908 187.544C133.983 187.628 134.02 187.735 134.02 187.866C134.02 188.099 133.857 188.314 133.53 188.51C133.194 188.706 132.84 188.855 132.466 188.958C132.093 189.051 131.729 189.098 131.374 189.098C130.32 189.098 129.484 188.785 128.868 188.16C128.262 187.535 127.958 186.671 127.958 185.57C127.958 184.87 128.094 184.254 128.364 183.722C128.635 183.181 129.013 182.761 129.498 182.462C129.993 182.163 130.553 182.014 131.178 182.014C132.065 182.014 132.77 182.303 133.292 182.882C133.815 183.461 134.076 184.245 134.076 185.234C134.076 185.421 134.039 185.556 133.964 185.64C133.89 185.724 133.768 185.766 133.6 185.766H129.092C129.176 187.371 129.937 188.174 131.374 188.174C131.738 188.174 132.051 188.127 132.312 188.034C132.574 187.931 132.854 187.796 133.152 187.628C133.395 187.488 133.558 187.418 133.642 187.418ZM131.192 182.896C130.595 182.896 130.114 183.083 129.75 183.456C129.396 183.829 129.186 184.357 129.12 185.038H133.082C133.064 184.347 132.891 183.82 132.564 183.456C132.238 183.083 131.78 182.896 131.192 182.896ZM136.321 189.07C136.153 189.07 136.013 189.023 135.901 188.93C135.799 188.827 135.747 188.687 135.747 188.51V179.62C135.747 179.443 135.799 179.307 135.901 179.214C136.013 179.111 136.153 179.06 136.321 179.06C136.48 179.06 136.611 179.111 136.713 179.214C136.825 179.307 136.881 179.443 136.881 179.62V188.51C136.881 188.687 136.825 188.827 136.713 188.93C136.611 189.023 136.48 189.07 136.321 189.07ZM141.829 189.098C141.185 189.098 140.616 188.953 140.121 188.664C139.636 188.375 139.258 187.964 138.987 187.432C138.726 186.891 138.595 186.265 138.595 185.556C138.595 184.847 138.726 184.226 138.987 183.694C139.258 183.153 139.636 182.737 140.121 182.448C140.616 182.159 141.185 182.014 141.829 182.014C142.473 182.014 143.043 182.159 143.537 182.448C144.032 182.737 144.41 183.153 144.671 183.694C144.942 184.226 145.077 184.847 145.077 185.556C145.077 186.265 144.942 186.891 144.671 187.432C144.41 187.964 144.032 188.375 143.537 188.664C143.043 188.953 142.473 189.098 141.829 189.098ZM141.829 188.16C142.501 188.16 143.015 187.941 143.369 187.502C143.733 187.054 143.915 186.405 143.915 185.556C143.915 184.725 143.733 184.086 143.369 183.638C143.005 183.181 142.492 182.952 141.829 182.952C141.167 182.952 140.653 183.181 140.289 183.638C139.925 184.086 139.743 184.725 139.743 185.556C139.743 186.396 139.921 187.04 140.275 187.488C140.639 187.936 141.157 188.16 141.829 188.16ZM150.197 182.014C150.794 182.014 151.321 182.163 151.779 182.462C152.236 182.761 152.591 183.181 152.843 183.722C153.095 184.254 153.221 184.875 153.221 185.584C153.221 186.293 153.095 186.914 152.843 187.446C152.591 187.969 152.236 188.375 151.779 188.664C151.331 188.953 150.803 189.098 150.197 189.098C149.665 189.098 149.198 188.981 148.797 188.748C148.405 188.515 148.106 188.183 147.901 187.754V191.044C147.901 191.212 147.849 191.343 147.747 191.436C147.653 191.539 147.518 191.59 147.341 191.59C147.163 191.59 147.023 191.539 146.921 191.436C146.818 191.333 146.767 191.203 146.767 191.044V182.602C146.767 182.434 146.818 182.299 146.921 182.196C147.023 182.093 147.163 182.042 147.341 182.042C147.518 182.042 147.653 182.093 147.747 182.196C147.849 182.299 147.901 182.434 147.901 182.602V183.358C148.106 182.929 148.405 182.597 148.797 182.364C149.198 182.131 149.665 182.014 150.197 182.014ZM149.973 188.16C150.635 188.16 151.149 187.936 151.513 187.488C151.877 187.04 152.059 186.405 152.059 185.584C152.059 184.763 151.877 184.123 151.513 183.666C151.149 183.199 150.635 182.966 149.973 182.966C149.31 182.966 148.797 183.19 148.433 183.638C148.078 184.086 147.901 184.725 147.901 185.556C147.901 186.387 148.078 187.031 148.433 187.488C148.797 187.936 149.31 188.16 149.973 188.16ZM160.193 187.418C160.296 187.418 160.385 187.46 160.459 187.544C160.534 187.628 160.571 187.735 160.571 187.866C160.571 188.099 160.408 188.314 160.081 188.51C159.745 188.706 159.391 188.855 159.017 188.958C158.644 189.051 158.28 189.098 157.925 189.098C156.871 189.098 156.035 188.785 155.419 188.16C154.813 187.535 154.509 186.671 154.509 185.57C154.509 184.87 154.645 184.254 154.915 183.722C155.186 183.181 155.564 182.761 156.049 182.462C156.544 182.163 157.104 182.014 157.729 182.014C158.616 182.014 159.321 182.303 159.843 182.882C160.366 183.461 160.627 184.245 160.627 185.234C160.627 185.421 160.59 185.556 160.515 185.64C160.441 185.724 160.319 185.766 160.151 185.766H155.643C155.727 187.371 156.488 188.174 157.925 188.174C158.289 188.174 158.602 188.127 158.863 188.034C159.125 187.931 159.405 187.796 159.703 187.628C159.946 187.488 160.109 187.418 160.193 187.418ZM157.743 182.896C157.146 182.896 156.665 183.083 156.301 183.456C155.947 183.829 155.737 184.357 155.671 185.038H159.633C159.615 184.347 159.442 183.82 159.115 183.456C158.789 183.083 158.331 182.896 157.743 182.896ZM165.672 182.042C166.064 182.014 166.26 182.173 166.26 182.518C166.26 182.667 166.218 182.789 166.134 182.882C166.05 182.966 165.905 183.017 165.7 183.036L165.28 183.078C164.655 183.134 164.188 183.358 163.88 183.75C163.581 184.133 163.432 184.585 163.432 185.108V188.51C163.432 188.697 163.381 188.837 163.278 188.93C163.175 189.023 163.04 189.07 162.872 189.07C162.704 189.07 162.564 189.023 162.452 188.93C162.349 188.827 162.298 188.687 162.298 188.51V182.602C162.298 182.425 162.354 182.289 162.466 182.196C162.578 182.093 162.713 182.042 162.872 182.042C163.021 182.042 163.147 182.093 163.25 182.196C163.353 182.289 163.404 182.42 163.404 182.588V183.372C163.6 182.961 163.875 182.649 164.23 182.434C164.594 182.219 165.009 182.093 165.476 182.056L165.672 182.042Z" fill="#1F005D"/>
<path d="M152.781 59.5H101.219V104.5H152.781V59.5ZM128.719 65.5H132.156V68.5H128.719V65.5ZM137.312 73V91H116.688V73H137.312ZM121.844 65.5H125.281V68.5H121.844V65.5ZM114.969 65.5H118.406V68.5H114.969V65.5ZM111.531 98.5H108.094V95.5H111.531V98.5ZM111.531 92.5H108.094V89.5H111.531V92.5ZM111.531 86.5H108.094V83.5H111.531V86.5ZM111.531 80.5H108.094V77.5H111.531V80.5ZM111.531 74.5H108.094V71.5H111.531V74.5ZM111.531 68.5H108.094V65.5H111.531V68.5ZM118.406 98.5H114.969V95.5H118.406V98.5ZM125.281 98.5H121.844V95.5H125.281V98.5ZM132.156 98.5H128.719V95.5H132.156V98.5ZM139.031 98.5H135.594V95.5H139.031V98.5ZM139.031 68.5H135.594V65.5H139.031V68.5ZM145.906 98.5H142.469V95.5H145.906V98.5ZM145.906 92.5H142.469V89.5H145.906V92.5ZM145.906 86.5H142.469V83.5H145.906V86.5ZM145.906 80.5H142.469V77.5H145.906V80.5ZM145.906 74.5H142.469V71.5H145.906V74.5ZM145.906 68.5H142.469V65.5H145.906V68.5Z" fill="#1F005D"/>
<path d="M94.3438 110.5H159.656V53.5H94.3438V110.5ZM97.7812 58C97.7812 57.6022 97.9623 57.2206 98.2847 56.9393C98.607 56.658 99.0442 56.5 99.5 56.5H154.5C154.956 56.5 155.393 56.658 155.715 56.9393C156.038 57.2206 156.219 57.6022 156.219 58V106C156.219 106.398 156.038 106.779 155.715 107.061C155.393 107.342 154.956 107.5 154.5 107.5H99.5C99.0442 107.5 98.607 107.342 98.2847 107.061C97.9623 106.779 97.7812 106.398 97.7812 106V58Z" fill="#1F005D"/>
<path d="M125.281 35.5H128.719V52H125.281V35.5Z" fill="#1F005D"/>
<path d="M90.9063 43C91.5073 42.9985 92.0972 42.8592 92.617 42.5959C93.1368 42.3326 93.5681 41.9547 93.8677 41.5H118.406V52H121.844V40C121.844 39.6022 121.663 39.2206 121.34 38.9393C121.018 38.658 120.581 38.5 120.125 38.5H93.8677C93.5657 38.0434 93.1311 37.6644 92.6078 37.4011C92.0845 37.1378 91.4909 36.9994 90.8868 37C90.2828 37.0006 89.6896 37.1401 89.1669 37.4045C88.6443 37.6689 88.2107 38.0488 87.9099 38.5059C87.6091 38.9631 87.4516 39.4813 87.4533 40.0085C87.455 40.5357 87.6158 41.0532 87.9196 41.5088C88.2234 41.9645 88.6595 42.3422 89.1838 42.604C89.7081 42.8658 90.3022 43.0024 90.9063 43Z" fill="#1F005D"/>
<path d="M135.594 44.5H160.132C160.511 45.0719 161.095 45.5189 161.794 45.7716C162.493 46.0244 163.268 46.0687 163.999 45.8978C164.73 45.7269 165.376 45.3502 165.836 44.8263C166.297 44.3024 166.547 43.6604 166.547 43C166.547 42.3396 166.297 41.6977 165.836 41.1737C165.376 40.6498 164.73 40.2731 163.999 40.1022C163.268 39.9313 162.493 39.9756 161.794 40.2284C161.095 40.4811 160.511 40.9281 160.132 41.5H133.875C133.419 41.5 132.982 41.658 132.66 41.9393C132.337 42.2206 132.156 42.6022 132.156 43V52H135.594V44.5Z" fill="#1F005D"/>
<path d="M73.7188 80.5H92.625V83.5H73.7188V80.5Z" fill="#1F005D"/>
<path d="M80.5938 110.916V89.5H92.625V86.5H78.875C78.4192 86.5 77.982 86.658 77.6597 86.9393C77.3373 87.2206 77.1563 87.6022 77.1563 88V110.916C76.5009 111.246 75.9887 111.755 75.6992 112.366C75.4096 112.976 75.3588 113.652 75.5546 114.29C75.7505 114.928 76.182 115.492 76.7824 115.894C77.3827 116.296 78.1183 116.514 78.875 116.514C79.6317 116.514 80.3673 116.296 80.9676 115.894C81.568 115.492 81.9995 114.928 82.1954 114.29C82.3912 113.652 82.3404 112.976 82.0508 112.366C81.7613 111.755 81.2491 111.246 80.5938 110.916V110.916Z" fill="#1F005D"/>
<path d="M80.5938 53.0845V76C80.5938 76.3978 80.7748 76.7794 81.0972 77.0607C81.4195 77.342 81.8567 77.5 82.3125 77.5H92.625V74.5H84.0313V53.0845C84.6866 52.7543 85.1988 52.2446 85.4883 51.6345C85.7779 51.0243 85.8287 50.3479 85.6329 49.71C85.437 49.0721 85.0055 48.5084 84.4051 48.1064C83.8048 47.7043 83.0692 47.4864 82.3125 47.4864C81.5558 47.4864 80.8202 47.7043 80.2199 48.1064C79.6195 48.5084 79.188 49.0721 78.9921 49.71C78.7963 50.3479 78.8471 51.0243 79.1367 51.6345C79.4262 52.2446 79.9384 52.7543 80.5938 53.0845V53.0845Z" fill="#1F005D"/>
<path d="M161.375 80.5H180.281V83.5H161.375V80.5Z" fill="#1F005D"/>
<path d="M173.406 53.0845V74.5H161.375V77.5H175.125C175.581 77.5 176.018 77.342 176.34 77.0607C176.663 76.7794 176.844 76.3978 176.844 76V53.0845C177.499 52.7543 178.011 52.2446 178.301 51.6345C178.59 51.0243 178.641 50.3479 178.445 49.71C178.25 49.0721 177.818 48.5084 177.218 48.1064C176.617 47.7043 175.882 47.4864 175.125 47.4864C174.368 47.4864 173.633 47.7043 173.032 48.1064C172.432 48.5084 172 49.0721 171.805 49.71C171.609 50.3479 171.66 51.0243 171.949 51.6345C172.239 52.2446 172.751 52.7543 173.406 53.0845Z" fill="#1F005D"/>
<path d="M173.406 110.916V88C173.406 87.6022 173.225 87.2206 172.903 86.9393C172.581 86.658 172.143 86.5 171.688 86.5H161.375V89.5H169.969V110.916C169.313 111.246 168.801 111.755 168.512 112.366C168.222 112.976 168.171 113.652 168.367 114.29C168.563 114.928 168.995 115.492 169.595 115.894C170.195 116.296 170.931 116.514 171.688 116.514C172.444 116.514 173.18 116.296 173.78 115.894C174.38 115.492 174.812 114.928 175.008 114.29C175.204 113.652 175.153 112.976 174.863 112.366C174.574 111.755 174.062 111.246 173.406 110.916Z" fill="#1F005D"/>
<path d="M125.281 112H128.719V128.5H125.281V112Z" fill="#1F005D"/>
<path d="M163.094 121C162.493 121.001 161.903 121.141 161.383 121.404C160.863 121.667 160.432 122.045 160.132 122.5H135.594V112H132.156V124C132.156 124.398 132.337 124.779 132.66 125.061C132.982 125.342 133.419 125.5 133.875 125.5H160.132C160.434 125.957 160.869 126.336 161.392 126.599C161.916 126.862 162.509 127.001 163.113 127C163.717 126.999 164.31 126.86 164.833 126.595C165.356 126.331 165.789 125.951 166.09 125.494C166.391 125.037 166.548 124.519 166.547 123.991C166.545 123.464 166.384 122.947 166.08 122.491C165.777 122.036 165.341 121.658 164.816 121.396C164.292 121.134 163.698 120.998 163.094 121V121Z" fill="#1F005D"/>
<path d="M118.406 119.5H93.8676C93.4893 118.928 92.9053 118.481 92.2062 118.228C91.507 117.976 90.7319 117.931 90.001 118.102C89.2701 118.273 88.6242 118.65 88.1635 119.174C87.7029 119.698 87.4532 120.34 87.4532 121C87.4532 121.66 87.7029 122.302 88.1635 122.826C88.6242 123.35 89.2701 123.727 90.001 123.898C90.7319 124.069 91.507 124.024 92.2062 123.772C92.9053 123.519 93.4893 123.072 93.8676 122.5H120.125C120.581 122.5 121.018 122.342 121.34 122.061C121.663 121.779 121.844 121.398 121.844 121V112H118.406V119.5Z" fill="#1F005D"/>
</svg>
