<svg xmlns="http://www.w3.org/2000/svg" xmlns:xlink="http://www.w3.org/1999/xlink" width="149" height="124" viewBox="0 0 149 124">
  <defs>
    <filter id="Path_12" x="0" y="0" width="149" height="124" filterUnits="userSpaceOnUse">
      <feOffset dx="-1" dy="-1" input="SourceAlpha"/>
      <feGaussianBlur stdDeviation="8" result="blur"/>
      <feFlood flood-color="#e51807"/>
      <feComposite operator="in" in2="blur"/>
      <feComposite in="SourceGraphic"/>
    </filter>
  </defs>
  <g id="logo" transform="translate(-2218.782 -573.399)">
    <g id="programming" transform="translate(2244.282 598.899)">
      <g transform="matrix(1, 0, 0, 1, -25.5, -25.5)" filter="url(#Path_12)">
        <path id="Path_12-2" data-name="Path 12" d="M85.848,170.741h-71.7A14.351,14.351,0,0,0,0,185.251v45.981a14.351,14.351,0,0,0,14.152,14.509h71.7A14.351,14.351,0,0,0,100,231.232V185.251A14.351,14.351,0,0,0,85.848,170.741ZM27.624,193.824,12.736,209.086l13.24,13.572a3.055,3.055,0,0,1,0,4.246,2.878,2.878,0,0,1-4.143,0l-15.313-15.7a3.055,3.055,0,0,1,0-4.247L23.48,189.577a2.88,2.88,0,0,1,4.145,0,3.059,3.059,0,0,1,0,4.247Zm67.188,15.7L77.854,226.905a2.88,2.88,0,0,1-4.145,0,3.059,3.059,0,0,1,0-4.247L88.6,207.4l-13.24-13.572a3.055,3.055,0,0,1,0-4.247,2.878,2.878,0,0,1,4.143,0l15.312,15.7a3.055,3.055,0,0,1,0,4.247Z" transform="translate(25.5 -145.24)" stroke="#000" stroke-linejoin="round" stroke-width="1"/>
      </g>
    </g>
    <text id="LC_DEV" transform="translate(2265.282 639.718)" fill="#e51807" font-size="16" font-family="CourierPrime-Bold, Courier Prime" font-weight="700"><tspan x="0" y="0">LC_DEV</tspan></text>
  </g>
</svg>
