<svg width="400" height="232" viewBox="0 0 400 232" fill="none" xmlns="http://www.w3.org/2000/svg">
<rect width="400" height="232" rx="38" fill="#A89E00"/>
<path d="M78.932 173C78.236 173 77.696 172.808 77.312 172.424C76.928 172.04 76.736 171.512 76.736 170.84V149.744C76.736 149.048 76.94 148.496 77.348 148.088C77.78 147.656 78.344 147.44 79.04 147.44C79.76 147.44 80.324 147.656 80.732 148.088C81.164 148.496 81.38 149.048 81.38 149.744V169.184H91.496C92.936 169.184 93.656 169.82 93.656 171.092C93.656 172.364 92.936 173 91.496 173H78.932ZM109.853 155.036C110.549 155.036 111.101 155.228 111.509 155.612C111.917 155.996 112.121 156.512 112.121 157.16V171.128C112.121 171.752 111.905 172.256 111.473 172.64C111.065 173.024 110.525 173.216 109.853 173.216C109.205 173.216 108.689 173.036 108.305 172.676C107.921 172.316 107.729 171.824 107.729 171.2V170.3C107.177 171.26 106.433 172.004 105.497 172.532C104.561 173.036 103.505 173.288 102.329 173.288C98.0092 173.288 95.8492 170.864 95.8492 166.016V157.16C95.8492 156.512 96.0532 155.996 96.4612 155.612C96.8692 155.228 97.4092 155.036 98.0812 155.036C98.7772 155.036 99.3292 155.228 99.7372 155.612C100.145 155.996 100.349 156.512 100.349 157.16V166.052C100.349 167.3 100.601 168.224 101.105 168.824C101.609 169.424 102.401 169.724 103.481 169.724C104.729 169.724 105.725 169.316 106.469 168.5C107.237 167.66 107.621 166.556 107.621 165.188V157.16C107.621 156.512 107.825 155.996 108.233 155.612C108.641 155.228 109.181 155.036 109.853 155.036ZM119.037 173.216C118.389 173.216 117.849 173.036 117.417 172.676C117.009 172.292 116.805 171.752 116.805 171.056V157.16C116.805 156.464 117.009 155.936 117.417 155.576C117.849 155.216 118.389 155.036 119.037 155.036C119.685 155.036 120.225 155.216 120.657 155.576C121.089 155.936 121.305 156.464 121.305 157.16V171.056C121.305 171.752 121.089 172.292 120.657 172.676C120.225 173.036 119.685 173.216 119.037 173.216ZM119.037 151.832C118.221 151.832 117.573 151.616 117.093 151.184C116.613 150.728 116.373 150.14 116.373 149.42C116.373 148.7 116.613 148.124 117.093 147.692C117.573 147.26 118.221 147.044 119.037 147.044C119.829 147.044 120.465 147.26 120.945 147.692C121.449 148.124 121.701 148.7 121.701 149.42C121.701 150.14 121.461 150.728 120.981 151.184C120.501 151.616 119.853 151.832 119.037 151.832ZM139.049 169.616C140.393 169.616 141.065 170.18 141.065 171.308C141.065 171.836 140.897 172.256 140.561 172.568C140.225 172.856 139.721 173 139.049 173H127.025C126.425 173 125.933 172.808 125.549 172.424C125.165 172.04 124.973 171.584 124.973 171.056C124.973 170.504 125.189 169.976 125.621 169.472L134.873 158.78H126.845C126.173 158.78 125.669 158.636 125.333 158.348C124.997 158.06 124.829 157.64 124.829 157.088C124.829 156.536 124.997 156.116 125.333 155.828C125.669 155.54 126.173 155.396 126.845 155.396H138.473C139.097 155.396 139.589 155.588 139.949 155.972C140.333 156.332 140.525 156.788 140.525 157.34C140.525 157.916 140.321 158.444 139.913 158.924L130.625 169.616H139.049ZM165.806 173.324C163.358 173.324 161.21 172.796 159.362 171.74C157.538 170.684 156.134 169.172 155.15 167.204C154.166 165.236 153.674 162.932 153.674 160.292C153.674 157.652 154.166 155.36 155.15 153.416C156.134 151.448 157.538 149.936 159.362 148.88C161.21 147.824 163.358 147.296 165.806 147.296C167.39 147.296 168.878 147.536 170.27 148.016C171.662 148.472 172.898 149.144 173.978 150.032C174.29 150.272 174.506 150.524 174.626 150.788C174.746 151.052 174.806 151.376 174.806 151.76C174.806 152.288 174.662 152.732 174.374 153.092C174.086 153.452 173.738 153.632 173.33 153.632C172.85 153.632 172.358 153.464 171.854 153.128C170.822 152.36 169.862 151.832 168.974 151.544C168.086 151.232 167.102 151.076 166.022 151.076C163.526 151.076 161.63 151.856 160.334 153.416C159.062 154.976 158.426 157.268 158.426 160.292C158.426 163.34 159.062 165.644 160.334 167.204C161.63 168.764 163.526 169.544 166.022 169.544C167.054 169.544 168.002 169.388 168.866 169.076C169.754 168.764 170.75 168.236 171.854 167.492C172.094 167.348 172.334 167.228 172.574 167.132C172.814 167.036 173.066 166.988 173.33 166.988C173.738 166.988 174.086 167.168 174.374 167.528C174.662 167.888 174.806 168.332 174.806 168.86C174.806 169.22 174.746 169.544 174.626 169.832C174.506 170.096 174.29 170.348 173.978 170.588C172.898 171.476 171.662 172.16 170.27 172.64C168.878 173.096 167.39 173.324 165.806 173.324ZM180.701 173.216C180.053 173.216 179.513 173.036 179.081 172.676C178.673 172.292 178.469 171.752 178.469 171.056V157.16C178.469 156.464 178.673 155.936 179.081 155.576C179.513 155.216 180.053 155.036 180.701 155.036C181.349 155.036 181.889 155.216 182.321 155.576C182.753 155.936 182.969 156.464 182.969 157.16V171.056C182.969 171.752 182.753 172.292 182.321 172.676C181.889 173.036 181.349 173.216 180.701 173.216ZM180.701 151.832C179.885 151.832 179.237 151.616 178.757 151.184C178.277 150.728 178.037 150.14 178.037 149.42C178.037 148.7 178.277 148.124 178.757 147.692C179.237 147.26 179.885 147.044 180.701 147.044C181.493 147.044 182.129 147.26 182.609 147.692C183.113 148.124 183.365 148.7 183.365 149.42C183.365 150.14 183.125 150.728 182.645 151.184C182.165 151.616 181.517 151.832 180.701 151.832ZM197.726 154.964C199.238 154.964 200.582 155.348 201.758 156.116C202.958 156.884 203.882 157.976 204.53 159.392C205.202 160.784 205.538 162.392 205.538 164.216C205.538 166.04 205.202 167.636 204.53 169.004C203.882 170.372 202.97 171.428 201.794 172.172C200.618 172.916 199.262 173.288 197.726 173.288C196.478 173.288 195.362 173.024 194.378 172.496C193.394 171.968 192.638 171.236 192.11 170.3V177.644C192.11 178.268 191.906 178.76 191.498 179.12C191.09 179.48 190.55 179.66 189.878 179.66C189.206 179.66 188.654 179.468 188.222 179.084C187.814 178.7 187.61 178.196 187.61 177.572V157.16C187.61 156.512 187.802 155.996 188.186 155.612C188.594 155.228 189.134 155.036 189.806 155.036C190.478 155.036 191.018 155.228 191.426 155.612C191.834 155.996 192.038 156.512 192.038 157.16V158.06C192.566 157.076 193.322 156.32 194.306 155.792C195.314 155.24 196.454 154.964 197.726 154.964ZM196.538 169.796C197.954 169.796 199.058 169.316 199.85 168.356C200.642 167.372 201.038 165.992 201.038 164.216C201.038 162.392 200.642 160.976 199.85 159.968C199.058 158.96 197.954 158.456 196.538 158.456C195.098 158.456 193.982 158.948 193.19 159.932C192.422 160.916 192.038 162.32 192.038 164.144C192.038 165.944 192.422 167.336 193.19 168.32C193.982 169.304 195.098 169.796 196.538 169.796ZM219.059 155.036C219.683 154.988 220.175 155.12 220.535 155.432C220.895 155.744 221.075 156.212 221.075 156.836C221.075 157.484 220.919 157.964 220.607 158.276C220.295 158.588 219.731 158.792 218.915 158.888L217.835 158.996C216.419 159.14 215.375 159.62 214.703 160.436C214.055 161.252 213.731 162.272 213.731 163.496V171.056C213.731 171.752 213.515 172.292 213.083 172.676C212.651 173.036 212.111 173.216 211.463 173.216C210.815 173.216 210.275 173.036 209.843 172.676C209.435 172.292 209.231 171.752 209.231 171.056V157.124C209.231 156.452 209.435 155.936 209.843 155.576C210.275 155.216 210.803 155.036 211.427 155.036C212.051 155.036 212.555 155.216 212.939 155.576C213.323 155.912 213.515 156.404 213.515 157.052V158.492C213.971 157.436 214.643 156.62 215.531 156.044C216.443 155.468 217.451 155.144 218.555 155.072L219.059 155.036ZM225.244 173.216C224.596 173.216 224.056 173.036 223.624 172.676C223.216 172.292 223.012 171.752 223.012 171.056V157.16C223.012 156.464 223.216 155.936 223.624 155.576C224.056 155.216 224.596 155.036 225.244 155.036C225.892 155.036 226.432 155.216 226.864 155.576C227.296 155.936 227.512 156.464 227.512 157.16V171.056C227.512 171.752 227.296 172.292 226.864 172.676C226.432 173.036 225.892 173.216 225.244 173.216ZM225.244 151.832C224.428 151.832 223.78 151.616 223.3 151.184C222.82 150.728 222.58 150.14 222.58 149.42C222.58 148.7 222.82 148.124 223.3 147.692C223.78 147.26 224.428 147.044 225.244 147.044C226.036 147.044 226.672 147.26 227.152 147.692C227.656 148.124 227.908 148.7 227.908 149.42C227.908 150.14 227.668 150.728 227.188 151.184C226.708 151.616 226.06 151.832 225.244 151.832ZM239.785 154.964C242.233 154.964 244.045 155.576 245.221 156.8C246.421 158 247.021 159.836 247.021 162.308V171.092C247.021 171.74 246.829 172.256 246.445 172.64C246.061 173 245.533 173.18 244.861 173.18C244.237 173.18 243.721 172.988 243.313 172.604C242.929 172.22 242.737 171.716 242.737 171.092V170.3C242.329 171.236 241.681 171.968 240.793 172.496C239.929 173.024 238.921 173.288 237.769 173.288C236.593 173.288 235.525 173.048 234.564 172.568C233.605 172.088 232.849 171.428 232.297 170.588C231.745 169.748 231.469 168.812 231.469 167.78C231.469 166.484 231.793 165.464 232.441 164.72C233.113 163.976 234.193 163.436 235.681 163.1C237.169 162.764 239.221 162.596 241.837 162.596H242.737V161.768C242.737 160.592 242.485 159.74 241.981 159.212C241.477 158.66 240.661 158.384 239.533 158.384C238.837 158.384 238.129 158.492 237.409 158.708C236.689 158.9 235.837 159.188 234.853 159.572C234.229 159.884 233.773 160.04 233.485 160.04C233.053 160.04 232.693 159.884 232.405 159.572C232.141 159.26 232.009 158.852 232.009 158.348C232.009 157.94 232.105 157.592 232.297 157.304C232.513 156.992 232.861 156.704 233.341 156.44C234.181 155.984 235.177 155.624 236.329 155.36C237.505 155.096 238.657 154.964 239.785 154.964ZM238.669 170.048C239.869 170.048 240.841 169.652 241.585 168.86C242.353 168.044 242.737 167 242.737 165.728V164.972H242.089C240.481 164.972 239.233 165.044 238.345 165.188C237.457 165.332 236.821 165.584 236.437 165.944C236.053 166.304 235.861 166.796 235.861 167.42C235.861 168.188 236.125 168.824 236.653 169.328C237.205 169.808 237.877 170.048 238.669 170.048ZM261.818 154.964C263.93 154.964 265.502 155.564 266.534 156.764C267.566 157.964 268.082 159.776 268.082 162.2V171.056C268.082 171.728 267.878 172.256 267.47 172.64C267.086 173.024 266.546 173.216 265.85 173.216C265.154 173.216 264.602 173.024 264.194 172.64C263.786 172.256 263.582 171.728 263.582 171.056V162.452C263.582 161.084 263.318 160.088 262.79 159.464C262.286 158.84 261.482 158.528 260.378 158.528C259.082 158.528 258.038 158.936 257.246 159.752C256.478 160.568 256.094 161.66 256.094 163.028V171.056C256.094 171.728 255.89 172.256 255.482 172.64C255.074 173.024 254.522 173.216 253.826 173.216C253.13 173.216 252.578 173.024 252.17 172.64C251.786 172.256 251.594 171.728 251.594 171.056V157.124C251.594 156.5 251.798 155.996 252.206 155.612C252.614 155.228 253.166 155.036 253.862 155.036C254.486 155.036 254.99 155.228 255.374 155.612C255.782 155.972 255.986 156.452 255.986 157.052V158.024C256.586 157.04 257.39 156.284 258.398 155.756C259.406 155.228 260.546 154.964 261.818 154.964ZM280.681 173.288C278.881 173.288 277.297 172.916 275.929 172.172C274.585 171.428 273.541 170.36 272.797 168.968C272.053 167.576 271.681 165.956 271.681 164.108C271.681 162.26 272.053 160.652 272.797 159.284C273.541 157.892 274.585 156.824 275.929 156.08C277.297 155.336 278.881 154.964 280.681 154.964C282.481 154.964 284.053 155.336 285.397 156.08C286.765 156.824 287.809 157.892 288.529 159.284C289.273 160.652 289.645 162.26 289.645 164.108C289.645 165.956 289.273 167.576 288.529 168.968C287.809 170.36 286.765 171.428 285.397 172.172C284.053 172.916 282.481 173.288 280.681 173.288ZM280.645 169.796C282.109 169.796 283.225 169.316 283.993 168.356C284.761 167.396 285.145 165.98 285.145 164.108C285.145 162.26 284.761 160.856 283.993 159.896C283.225 158.912 282.121 158.42 280.681 158.42C279.241 158.42 278.125 158.912 277.333 159.896C276.565 160.856 276.181 162.26 276.181 164.108C276.181 165.98 276.565 167.396 277.333 168.356C278.101 169.316 279.205 169.796 280.645 169.796Z" fill="#1F005D"/>
<path d="M80.072 206.12C79.768 206.12 79.528 206.032 79.352 205.856C79.176 205.664 79.088 205.416 79.088 205.112V190.04C79.088 189.752 79.176 189.52 79.352 189.344C79.544 189.168 79.792 189.08 80.096 189.08H88.832C89.12 189.08 89.344 189.152 89.504 189.296C89.664 189.44 89.744 189.648 89.744 189.92C89.744 190.176 89.664 190.376 89.504 190.52C89.344 190.664 89.12 190.736 88.832 190.736H81.032V196.568H88.352C88.64 196.568 88.864 196.64 89.024 196.784C89.184 196.928 89.264 197.136 89.264 197.408C89.264 197.664 89.184 197.864 89.024 198.008C88.864 198.152 88.64 198.224 88.352 198.224H81.032V205.112C81.032 205.416 80.944 205.664 80.768 205.856C80.608 206.032 80.376 206.12 80.072 206.12ZM97.709 194.072C98.381 194.024 98.717 194.296 98.717 194.888C98.717 195.144 98.645 195.352 98.501 195.512C98.357 195.656 98.109 195.744 97.757 195.776L97.037 195.848C95.965 195.944 95.165 196.328 94.637 197C94.125 197.656 93.869 198.432 93.869 199.328V205.16C93.869 205.48 93.781 205.72 93.605 205.88C93.429 206.04 93.197 206.12 92.909 206.12C92.621 206.12 92.381 206.04 92.189 205.88C92.013 205.704 91.925 205.464 91.925 205.16V195.032C91.925 194.728 92.021 194.496 92.213 194.336C92.405 194.16 92.637 194.072 92.909 194.072C93.165 194.072 93.381 194.16 93.557 194.336C93.733 194.496 93.821 194.72 93.821 195.008V196.352C94.157 195.648 94.629 195.112 95.237 194.744C95.861 194.376 96.573 194.16 97.373 194.096L97.709 194.072ZM105 206.168C103.896 206.168 102.92 205.92 102.072 205.424C101.24 204.928 100.592 204.224 100.128 203.312C99.6796 202.384 99.4556 201.312 99.4556 200.096C99.4556 198.88 99.6796 197.816 100.128 196.904C100.592 195.976 101.24 195.264 102.072 194.768C102.92 194.272 103.896 194.024 105 194.024C106.104 194.024 107.08 194.272 107.928 194.768C108.776 195.264 109.424 195.976 109.872 196.904C110.336 197.816 110.568 198.88 110.568 200.096C110.568 201.312 110.336 202.384 109.872 203.312C109.424 204.224 108.776 204.928 107.928 205.424C107.08 205.92 106.104 206.168 105 206.168ZM105 204.56C106.152 204.56 107.032 204.184 107.64 203.432C108.264 202.664 108.576 201.552 108.576 200.096C108.576 198.672 108.264 197.576 107.64 196.808C107.016 196.024 106.136 195.632 105 195.632C103.864 195.632 102.984 196.024 102.36 196.808C101.736 197.576 101.424 198.672 101.424 200.096C101.424 201.536 101.728 202.64 102.336 203.408C102.96 204.176 103.848 204.56 105 204.56ZM119.344 194.024C122.144 194.024 123.544 195.568 123.544 198.656V205.16C123.544 205.464 123.456 205.704 123.28 205.88C123.12 206.04 122.888 206.12 122.584 206.12C122.28 206.12 122.04 206.04 121.864 205.88C121.688 205.704 121.6 205.464 121.6 205.16V198.776C121.6 197.688 121.384 196.896 120.952 196.4C120.536 195.904 119.864 195.656 118.936 195.656C117.864 195.656 117.008 195.984 116.368 196.64C115.728 197.296 115.408 198.184 115.408 199.304V205.16C115.408 205.464 115.32 205.704 115.144 205.88C114.984 206.04 114.752 206.12 114.448 206.12C114.144 206.12 113.904 206.04 113.728 205.88C113.552 205.704 113.464 205.464 113.464 205.16V195.032C113.464 194.744 113.552 194.512 113.728 194.336C113.904 194.16 114.144 194.072 114.448 194.072C114.736 194.072 114.96 194.16 115.12 194.336C115.296 194.512 115.384 194.736 115.384 195.008V196.232C115.768 195.512 116.304 194.968 116.992 194.6C117.68 194.216 118.464 194.024 119.344 194.024ZM132.505 204.584C133.065 204.632 133.345 204.888 133.345 205.352C133.345 205.624 133.241 205.832 133.033 205.976C132.841 206.104 132.545 206.152 132.145 206.12L131.497 206.072C130.217 205.976 129.273 205.592 128.665 204.92C128.057 204.248 127.753 203.232 127.753 201.872V195.848H126.145C125.873 195.848 125.657 195.784 125.497 195.656C125.353 195.512 125.281 195.328 125.281 195.104C125.281 194.864 125.353 194.672 125.497 194.528C125.657 194.384 125.873 194.312 126.145 194.312H127.753V191.6C127.753 191.296 127.841 191.064 128.017 190.904C128.193 190.728 128.433 190.64 128.737 190.64C129.025 190.64 129.257 190.728 129.433 190.904C129.609 191.064 129.697 191.296 129.697 191.6V194.312H132.361C132.617 194.312 132.817 194.384 132.961 194.528C133.121 194.672 133.201 194.864 133.201 195.104C133.201 195.328 133.121 195.512 132.961 195.656C132.817 195.784 132.617 195.848 132.361 195.848H129.697V201.968C129.697 202.848 129.873 203.488 130.225 203.888C130.593 204.272 131.137 204.488 131.857 204.536L132.505 204.584ZM135.581 200.408C135.293 200.408 135.069 200.336 134.909 200.192C134.765 200.048 134.693 199.856 134.693 199.616C134.693 199.376 134.765 199.184 134.909 199.04C135.069 198.88 135.293 198.8 135.581 198.8H140.861C141.165 198.8 141.389 198.88 141.533 199.04C141.693 199.184 141.773 199.376 141.773 199.616C141.773 199.856 141.693 200.048 141.533 200.192C141.389 200.336 141.165 200.408 140.861 200.408H135.581ZM146.424 206C146.12 206 145.872 205.912 145.68 205.736C145.504 205.56 145.416 205.328 145.416 205.04V190.04C145.416 189.752 145.504 189.52 145.68 189.344C145.872 189.168 146.12 189.08 146.424 189.08H155.4C155.688 189.08 155.912 189.152 156.072 189.296C156.232 189.44 156.312 189.64 156.312 189.896C156.312 190.152 156.232 190.352 156.072 190.496C155.912 190.64 155.688 190.712 155.4 190.712H147.36V196.592H154.92C155.208 196.592 155.432 196.664 155.592 196.808C155.752 196.952 155.832 197.152 155.832 197.408C155.832 197.664 155.752 197.864 155.592 198.008C155.432 198.152 155.208 198.224 154.92 198.224H147.36V204.368H155.4C155.688 204.368 155.912 204.44 156.072 204.584C156.232 204.712 156.312 204.912 156.312 205.184C156.312 205.44 156.232 205.64 156.072 205.784C155.912 205.928 155.688 206 155.4 206H146.424ZM164.977 194.024C167.777 194.024 169.177 195.568 169.177 198.656V205.16C169.177 205.464 169.089 205.704 168.913 205.88C168.753 206.04 168.521 206.12 168.217 206.12C167.913 206.12 167.673 206.04 167.497 205.88C167.321 205.704 167.233 205.464 167.233 205.16V198.776C167.233 197.688 167.017 196.896 166.585 196.4C166.169 195.904 165.497 195.656 164.569 195.656C163.497 195.656 162.641 195.984 162.001 196.64C161.361 197.296 161.041 198.184 161.041 199.304V205.16C161.041 205.464 160.953 205.704 160.777 205.88C160.617 206.04 160.385 206.12 160.081 206.12C159.777 206.12 159.537 206.04 159.361 205.88C159.185 205.704 159.097 205.464 159.097 205.16V195.032C159.097 194.744 159.185 194.512 159.361 194.336C159.537 194.16 159.777 194.072 160.081 194.072C160.369 194.072 160.593 194.16 160.753 194.336C160.929 194.512 161.017 194.736 161.017 195.008V196.232C161.401 195.512 161.937 194.968 162.625 194.6C163.313 194.216 164.097 194.024 164.977 194.024ZM182.122 188.96C182.426 188.96 182.666 189.048 182.842 189.224C183.018 189.4 183.106 189.624 183.106 189.896V205.16C183.106 205.448 183.018 205.68 182.842 205.856C182.666 206.032 182.426 206.12 182.122 206.12C181.818 206.12 181.578 206.032 181.402 205.856C181.242 205.68 181.162 205.448 181.162 205.16V203.864C180.81 204.6 180.29 205.168 179.602 205.568C178.93 205.968 178.138 206.168 177.226 206.168C176.202 206.168 175.298 205.912 174.514 205.4C173.73 204.888 173.122 204.176 172.69 203.264C172.258 202.336 172.042 201.264 172.042 200.048C172.042 198.848 172.258 197.792 172.69 196.88C173.122 195.968 173.73 195.264 174.514 194.768C175.298 194.272 176.202 194.024 177.226 194.024C178.138 194.024 178.93 194.224 179.602 194.624C180.29 195.024 180.81 195.592 181.162 196.328V189.896C181.162 189.608 181.242 189.384 181.402 189.224C181.578 189.048 181.818 188.96 182.122 188.96ZM177.61 204.56C178.746 204.56 179.618 204.176 180.226 203.408C180.85 202.624 181.162 201.52 181.162 200.096C181.162 198.672 180.85 197.576 180.226 196.808C179.618 196.04 178.746 195.656 177.61 195.656C176.474 195.656 175.586 196.04 174.946 196.808C174.322 197.576 174.01 198.656 174.01 200.048C174.01 201.472 174.322 202.584 174.946 203.384C175.586 204.168 176.474 204.56 177.61 204.56ZM194.19 206C193.886 206 193.638 205.912 193.446 205.736C193.27 205.56 193.182 205.328 193.182 205.04V190.04C193.182 189.752 193.27 189.52 193.446 189.344C193.638 189.168 193.886 189.08 194.19 189.08H198.87C201.574 189.08 203.662 189.816 205.134 191.288C206.622 192.744 207.366 194.824 207.366 197.528C207.366 200.232 206.622 202.32 205.134 203.792C203.646 205.264 201.558 206 198.87 206H194.19ZM198.75 204.32C203.134 204.32 205.326 202.056 205.326 197.528C205.326 193.016 203.134 190.76 198.75 190.76H195.15V204.32H198.75ZM219.684 203.288C219.86 203.288 220.012 203.36 220.14 203.504C220.268 203.648 220.332 203.832 220.332 204.056C220.332 204.456 220.052 204.824 219.492 205.16C218.916 205.496 218.308 205.752 217.668 205.928C217.028 206.088 216.404 206.168 215.796 206.168C213.988 206.168 212.556 205.632 211.5 204.56C210.46 203.488 209.94 202.008 209.94 200.12C209.94 198.92 210.172 197.864 210.636 196.952C211.1 196.024 211.748 195.304 212.58 194.792C213.428 194.28 214.388 194.024 215.46 194.024C216.98 194.024 218.188 194.52 219.084 195.512C219.98 196.504 220.428 197.848 220.428 199.544C220.428 199.864 220.364 200.096 220.236 200.24C220.108 200.384 219.9 200.456 219.612 200.456H211.884C212.028 203.208 213.332 204.584 215.796 204.584C216.42 204.584 216.956 204.504 217.404 204.344C217.852 204.168 218.332 203.936 218.844 203.648C219.26 203.408 219.54 203.288 219.684 203.288ZM215.484 195.536C214.46 195.536 213.636 195.856 213.012 196.496C212.404 197.136 212.044 198.04 211.932 199.208H218.724C218.692 198.024 218.396 197.12 217.836 196.496C217.276 195.856 216.492 195.536 215.484 195.536ZM231.576 194.672C231.752 194.288 232.032 194.096 232.416 194.096C232.656 194.096 232.872 194.176 233.064 194.336C233.256 194.496 233.352 194.696 233.352 194.936C233.352 195.08 233.32 195.208 233.256 195.32L228.576 205.4C228.48 205.608 228.336 205.776 228.144 205.904C227.952 206.016 227.744 206.072 227.52 206.072C227.312 206.072 227.112 206.016 226.92 205.904C226.728 205.776 226.576 205.608 226.464 205.4L221.808 195.32C221.744 195.208 221.712 195.088 221.712 194.96C221.712 194.72 221.816 194.512 222.024 194.336C222.248 194.16 222.488 194.072 222.744 194.072C222.904 194.072 223.056 194.12 223.2 194.216C223.36 194.312 223.48 194.448 223.56 194.624L227.568 203.624L231.576 194.672ZM244.387 203.288C244.563 203.288 244.715 203.36 244.843 203.504C244.971 203.648 245.035 203.832 245.035 204.056C245.035 204.456 244.755 204.824 244.195 205.16C243.619 205.496 243.011 205.752 242.371 205.928C241.731 206.088 241.107 206.168 240.499 206.168C238.691 206.168 237.259 205.632 236.203 204.56C235.163 203.488 234.643 202.008 234.643 200.12C234.643 198.92 234.875 197.864 235.339 196.952C235.803 196.024 236.451 195.304 237.283 194.792C238.131 194.28 239.091 194.024 240.163 194.024C241.683 194.024 242.891 194.52 243.787 195.512C244.683 196.504 245.131 197.848 245.131 199.544C245.131 199.864 245.067 200.096 244.939 200.24C244.811 200.384 244.603 200.456 244.315 200.456H236.587C236.731 203.208 238.035 204.584 240.499 204.584C241.123 204.584 241.659 204.504 242.107 204.344C242.555 204.168 243.035 203.936 243.547 203.648C243.963 203.408 244.243 203.288 244.387 203.288ZM240.187 195.536C239.163 195.536 238.339 195.856 237.715 196.496C237.107 197.136 236.747 198.04 236.635 199.208H243.427C243.395 198.024 243.099 197.12 242.539 196.496C241.979 195.856 241.195 195.536 240.187 195.536ZM248.979 206.12C248.691 206.12 248.451 206.04 248.259 205.88C248.083 205.704 247.995 205.464 247.995 205.16V189.92C247.995 189.616 248.083 189.384 248.259 189.224C248.451 189.048 248.691 188.96 248.979 188.96C249.251 188.96 249.475 189.048 249.651 189.224C249.843 189.384 249.939 189.616 249.939 189.92V205.16C249.939 205.464 249.843 205.704 249.651 205.88C249.475 206.04 249.251 206.12 248.979 206.12ZM258.421 206.168C257.317 206.168 256.341 205.92 255.493 205.424C254.661 204.928 254.013 204.224 253.549 203.312C253.101 202.384 252.877 201.312 252.877 200.096C252.877 198.88 253.101 197.816 253.549 196.904C254.013 195.976 254.661 195.264 255.493 194.768C256.341 194.272 257.317 194.024 258.421 194.024C259.525 194.024 260.501 194.272 261.349 194.768C262.197 195.264 262.845 195.976 263.293 196.904C263.757 197.816 263.989 198.88 263.989 200.096C263.989 201.312 263.757 202.384 263.293 203.312C262.845 204.224 262.197 204.928 261.349 205.424C260.501 205.92 259.525 206.168 258.421 206.168ZM258.421 204.56C259.573 204.56 260.453 204.184 261.061 203.432C261.685 202.664 261.997 201.552 261.997 200.096C261.997 198.672 261.685 197.576 261.061 196.808C260.437 196.024 259.557 195.632 258.421 195.632C257.285 195.632 256.405 196.024 255.781 196.808C255.157 197.576 254.845 198.672 254.845 200.096C254.845 201.536 255.149 202.64 255.757 203.408C256.381 204.176 257.269 204.56 258.421 204.56ZM272.766 194.024C273.79 194.024 274.694 194.28 275.478 194.792C276.262 195.304 276.87 196.024 277.302 196.952C277.734 197.864 277.95 198.928 277.95 200.144C277.95 201.36 277.734 202.424 277.302 203.336C276.87 204.232 276.262 204.928 275.478 205.424C274.71 205.92 273.806 206.168 272.766 206.168C271.854 206.168 271.054 205.968 270.366 205.568C269.694 205.168 269.182 204.6 268.83 203.864V209.504C268.83 209.792 268.742 210.016 268.566 210.176C268.406 210.352 268.174 210.44 267.87 210.44C267.566 210.44 267.326 210.352 267.15 210.176C266.974 210 266.886 209.776 266.886 209.504V195.032C266.886 194.744 266.974 194.512 267.15 194.336C267.326 194.16 267.566 194.072 267.87 194.072C268.174 194.072 268.406 194.16 268.566 194.336C268.742 194.512 268.83 194.744 268.83 195.032V196.328C269.182 195.592 269.694 195.024 270.366 194.624C271.054 194.224 271.854 194.024 272.766 194.024ZM272.382 204.56C273.518 204.56 274.398 204.176 275.022 203.408C275.646 202.64 275.958 201.552 275.958 200.144C275.958 198.736 275.646 197.64 275.022 196.856C274.398 196.056 273.518 195.656 272.382 195.656C271.246 195.656 270.366 196.04 269.742 196.808C269.134 197.576 268.83 198.672 268.83 200.096C268.83 201.52 269.134 202.624 269.742 203.408C270.366 204.176 271.246 204.56 272.382 204.56ZM289.903 203.288C290.079 203.288 290.231 203.36 290.359 203.504C290.487 203.648 290.551 203.832 290.551 204.056C290.551 204.456 290.271 204.824 289.711 205.16C289.135 205.496 288.527 205.752 287.887 205.928C287.247 206.088 286.623 206.168 286.015 206.168C284.207 206.168 282.775 205.632 281.719 204.56C280.679 203.488 280.159 202.008 280.159 200.12C280.159 198.92 280.391 197.864 280.855 196.952C281.319 196.024 281.967 195.304 282.799 194.792C283.647 194.28 284.607 194.024 285.679 194.024C287.199 194.024 288.407 194.52 289.303 195.512C290.199 196.504 290.647 197.848 290.647 199.544C290.647 199.864 290.583 200.096 290.455 200.24C290.327 200.384 290.119 200.456 289.831 200.456H282.103C282.247 203.208 283.551 204.584 286.015 204.584C286.639 204.584 287.175 204.504 287.623 204.344C288.071 204.168 288.551 203.936 289.063 203.648C289.479 203.408 289.759 203.288 289.903 203.288ZM285.703 195.536C284.679 195.536 283.855 195.856 283.231 196.496C282.623 197.136 282.263 198.04 282.151 199.208H288.943C288.911 198.024 288.615 197.12 288.055 196.496C287.495 195.856 286.711 195.536 285.703 195.536ZM299.295 194.072C299.967 194.024 300.303 194.296 300.303 194.888C300.303 195.144 300.231 195.352 300.087 195.512C299.943 195.656 299.695 195.744 299.343 195.776L298.623 195.848C297.551 195.944 296.751 196.328 296.223 197C295.711 197.656 295.455 198.432 295.455 199.328V205.16C295.455 205.48 295.367 205.72 295.191 205.88C295.015 206.04 294.783 206.12 294.495 206.12C294.207 206.12 293.967 206.04 293.775 205.88C293.599 205.704 293.511 205.464 293.511 205.16V195.032C293.511 194.728 293.607 194.496 293.799 194.336C293.991 194.16 294.223 194.072 294.495 194.072C294.751 194.072 294.967 194.16 295.143 194.336C295.319 194.496 295.407 194.72 295.407 195.008V196.352C295.743 195.648 296.215 195.112 296.823 194.744C297.447 194.376 298.159 194.16 298.959 194.096L299.295 194.072Z" fill="#1F005D"/>
<path d="M239 46H161V102H239V46ZM202.6 53.4667H207.8V57.2H202.6V53.4667ZM215.6 62.8V85.2H184.4V62.8H215.6ZM192.2 53.4667H197.4V57.2H192.2V53.4667ZM181.8 53.4667H187V57.2H181.8V53.4667ZM176.6 94.5333H171.4V90.8H176.6V94.5333ZM176.6 87.0667H171.4V83.3333H176.6V87.0667ZM176.6 79.6H171.4V75.8667H176.6V79.6ZM176.6 72.1333H171.4V68.4H176.6V72.1333ZM176.6 64.6667H171.4V60.9333H176.6V64.6667ZM176.6 57.2H171.4V53.4667H176.6V57.2ZM187 94.5333H181.8V90.8H187V94.5333ZM197.4 94.5333H192.2V90.8H197.4V94.5333ZM207.8 94.5333H202.6V90.8H207.8V94.5333ZM218.2 94.5333H213V90.8H218.2V94.5333ZM218.2 57.2H213V53.4667H218.2V57.2ZM228.6 94.5333H223.4V90.8H228.6V94.5333ZM228.6 87.0667H223.4V83.3333H228.6V87.0667ZM228.6 79.6H223.4V75.8667H228.6V79.6ZM228.6 72.1333H223.4V68.4H228.6V72.1333ZM228.6 64.6667H223.4V60.9333H228.6V64.6667ZM228.6 57.2H223.4V53.4667H228.6V57.2Z" fill="#1F005D"/>
<path d="M150 109H250V39H150V109ZM155.263 44.5263C155.263 44.0378 155.54 43.5692 156.034 43.2238C156.527 42.8783 157.197 42.6842 157.895 42.6842H242.105C242.803 42.6842 243.473 42.8783 243.966 43.2238C244.46 43.5692 244.737 44.0378 244.737 44.5263V103.474C244.737 103.962 244.46 104.431 243.966 104.776C243.473 105.122 242.803 105.316 242.105 105.316H157.895C157.197 105.316 156.527 105.122 156.034 104.776C155.54 104.431 155.263 103.962 155.263 103.474V44.5263Z" fill="#1F005D"/>
<path d="M197 17H203V38H197V17Z" fill="#1F005D"/>
<path d="M145.221 26.6C146.13 26.5981 147.022 26.4216 147.808 26.0881C148.594 25.7546 149.246 25.2759 149.699 24.7H186.802V38H192V22.8C192 22.2961 191.726 21.8128 191.239 21.4565C190.751 21.1001 190.09 20.9 189.401 20.9H149.699C149.242 20.3217 148.585 19.8416 147.794 19.508C147.003 19.1745 146.105 18.9992 145.192 19C144.278 19.0008 143.381 19.1775 142.591 19.5123C141.801 19.8472 141.145 20.3284 140.69 20.9075C140.236 21.4865 139.997 22.143 140 22.8108C140.003 23.4785 140.246 24.134 140.705 24.7112C141.165 25.2883 141.824 25.7668 142.617 26.0984C143.409 26.43 144.308 26.603 145.221 26.6Z" fill="#1F005D"/>
<path d="M213.198 28.625H250.301C250.873 29.3399 251.756 29.8986 252.813 30.2145C253.87 30.5305 255.042 30.5859 256.148 30.3722C257.253 30.1586 258.229 29.6878 258.926 29.0329C259.622 28.3779 260 27.5755 260 26.75C260 25.9245 259.622 25.1221 258.926 24.4671C258.229 23.8122 257.253 23.3414 256.148 23.1278C255.042 22.9141 253.87 22.9695 252.813 23.2855C251.756 23.6014 250.873 24.1601 250.301 24.875H210.599C209.91 24.875 209.249 25.0725 208.761 25.4242C208.274 25.7758 208 26.2527 208 26.75V38H213.198V28.625Z" fill="#1F005D"/>
<path d="M119 72H148V76H119V72Z" fill="#1F005D"/>
<path d="M129.8 109.285V83.5984H148V80H127.2C126.51 80 125.849 80.1896 125.362 80.527C124.874 80.8644 124.6 81.322 124.6 81.7992V109.285C123.609 109.681 122.834 110.293 122.396 111.025C121.958 111.756 121.881 112.568 122.177 113.333C122.473 114.098 123.126 114.774 124.034 115.256C124.943 115.739 126.055 116 127.2 116C128.345 116 129.457 115.739 130.366 115.256C131.274 114.774 131.927 114.098 132.223 113.333C132.519 112.568 132.442 111.756 132.004 111.025C131.566 110.293 130.791 109.681 129.8 109.285V109.285Z" fill="#1F005D"/>
<path d="M129.625 38.7147V66.2008C129.625 66.678 129.902 67.1356 130.394 67.473C130.886 67.8104 131.554 68 132.25 68H148V64.4016H134.875V38.7147C135.876 38.3186 136.658 37.7072 137.1 36.9754C137.543 36.2436 137.62 35.4322 137.321 34.667C137.022 33.9019 136.363 33.2258 135.446 32.7436C134.529 32.2614 133.406 32 132.25 32C131.094 32 129.971 32.2614 129.054 32.7436C128.137 33.2258 127.478 33.9019 127.179 34.667C126.88 35.4322 126.957 36.2436 127.4 36.9754C127.842 37.7072 128.624 38.3186 129.625 38.7147V38.7147Z" fill="#1F005D"/>
<path d="M252 72H281V76H252V72Z" fill="#1F005D"/>
<path d="M270.2 38.7147V64.4016H252V68H272.8C273.49 68 274.151 67.8104 274.638 67.473C275.126 67.1356 275.4 66.678 275.4 66.2008V38.7147C276.391 38.3186 277.166 37.7072 277.604 36.9754C278.042 36.2436 278.119 35.4322 277.823 34.667C277.527 33.9019 276.874 33.2258 275.966 32.7436C275.057 32.2614 273.945 32 272.8 32C271.655 32 270.543 32.2614 269.634 32.7436C268.726 33.2258 268.073 33.9019 267.777 34.667C267.481 35.4322 267.558 36.2436 267.996 36.9754C268.434 37.7072 269.209 38.3186 270.2 38.7147Z" fill="#1F005D"/>
<path d="M270.375 109.285V81.7992C270.375 81.322 270.098 80.8644 269.606 80.527C269.114 80.1896 268.446 80 267.75 80H252V83.5984H265.125V109.285C264.124 109.681 263.342 110.293 262.9 111.025C262.457 111.756 262.38 112.568 262.679 113.333C262.978 114.098 263.637 114.774 264.554 115.256C265.471 115.739 266.594 116 267.75 116C268.906 116 270.029 115.739 270.946 115.256C271.863 114.774 272.522 114.098 272.821 113.333C273.12 112.568 273.043 111.756 272.6 111.025C272.158 110.293 271.376 109.681 270.375 109.285Z" fill="#1F005D"/>
<path d="M197 111H203V131H197V111Z" fill="#1F005D"/>
<path d="M254.779 121.8C253.87 121.802 252.978 121.969 252.192 122.285C251.406 122.601 250.754 123.054 250.301 123.6H213.198V111H208V125.4C208 125.877 208.274 126.335 208.761 126.673C209.249 127.01 209.91 127.2 210.599 127.2H250.301C250.758 127.748 251.415 128.203 252.206 128.519C252.997 128.835 253.895 129.001 254.808 129C255.722 128.999 256.619 128.832 257.409 128.515C258.199 128.197 258.855 127.742 259.31 127.193C259.764 126.644 260.003 126.022 260 125.39C259.997 124.757 259.754 124.136 259.295 123.589C258.835 123.043 258.176 122.589 257.383 122.275C256.591 121.961 255.692 121.797 254.779 121.8V121.8Z" fill="#1F005D"/>
<path d="M186.802 120.375H149.699C149.127 119.66 148.244 119.101 147.187 118.785C146.13 118.47 144.958 118.414 143.852 118.628C142.747 118.841 141.771 119.312 141.074 119.967C140.378 120.622 140 121.424 140 122.25C140 123.076 140.378 123.878 141.074 124.533C141.771 125.188 142.747 125.659 143.852 125.872C144.958 126.086 146.13 126.03 147.187 125.715C148.244 125.399 149.127 124.84 149.699 124.125H189.401C190.09 124.125 190.751 123.927 191.239 123.576C191.726 123.224 192 122.747 192 122.25V111H186.802V120.375Z" fill="#1F005D"/>
<rect x="77" y="129" width="25" height="8" fill="#1F005D"/>
</svg>
