<svg width="47" height="28" viewBox="0 0 47 28" fill="none" xmlns="http://www.w3.org/2000/svg">
<path d="M33 0.85H14C6.73746 0.85 0.85 6.73746 0.85 14C0.85 21.2625 6.73745 27.15 14 27.15H33C40.2625 27.15 46.15 21.2625 46.15 14C46.15 6.73746 40.2625 0.85 33 0.85Z" fill="#1F005D" stroke="#A89E00" stroke-width="0.3"/>
<g filter="url(#filter0_d)">
<rect x="10" y="8" width="19" height="12" rx="6" fill="#A89E00"/>
<rect x="10.1" y="8.1" width="18.8" height="11.8" rx="5.9" stroke="#1F005D" stroke-width="0.2"/>
</g>
<path d="M19.1211 17.0801H23.1641V18H17.9902V9.46875H19.1211V17.0801Z" fill="#1F005D"/>
<path d="M39.2656 16.293C39.1602 17.1953 38.8262 17.8926 38.2637 18.3848C37.7051 18.873 36.9609 19.1172 36.0312 19.1172C35.0234 19.1172 34.2148 18.7559 33.6055 18.0332C33 17.3105 32.6973 16.3438 32.6973 15.1328V14.3125C32.6973 13.5195 32.8379 12.8223 33.1191 12.2207C33.4043 11.6191 33.8066 11.1582 34.3262 10.8379C34.8457 10.5137 35.4473 10.3516 36.1309 10.3516C37.0371 10.3516 37.7637 10.6055 38.3105 11.1133C38.8574 11.6172 39.1758 12.3164 39.2656 13.2109H38.1348C38.0371 12.5312 37.8242 12.0391 37.4961 11.7344C37.1719 11.4297 36.7168 11.2773 36.1309 11.2773C35.4121 11.2773 34.8477 11.543 34.4375 12.0742C34.0312 12.6055 33.8281 13.3613 33.8281 14.3418V15.168C33.8281 16.0938 34.0215 16.8301 34.4082 17.377C34.7949 17.9238 35.3359 18.1973 36.0312 18.1973C36.6562 18.1973 37.1348 18.0566 37.4668 17.7754C37.8027 17.4902 38.0254 16.9961 38.1348 16.293H39.2656Z" fill="#A89E00"/>
<defs>
<filter id="filter0_d" x="6" y="8" width="27" height="20" filterUnits="userSpaceOnUse" color-interpolation-filters="sRGB">
<feFlood flood-opacity="0" result="BackgroundImageFix"/>
<feColorMatrix in="SourceAlpha" type="matrix" values="0 0 0 0 0 0 0 0 0 0 0 0 0 0 0 0 0 0 127 0"/>
<feOffset dy="4"/>
<feGaussianBlur stdDeviation="2"/>
<feColorMatrix type="matrix" values="0 0 0 0 0 0 0 0 0 0 0 0 0 0 0 0 0 0 0.25 0"/>
<feBlend mode="normal" in2="BackgroundImageFix" result="effect1_dropShadow"/>
<feBlend mode="normal" in="SourceGraphic" in2="effect1_dropShadow" result="shape"/>
</filter>
</defs>
</svg>
